<svg xmlns="http://www.w3.org/2000/svg" width="400" height="400" viewBox="0 0 40 40" fill="none"><rect width="40" height="40" rx="20" fill="#EEF1F7"></rect><path d="M21.175 20L24.7583 16.425C24.9153 16.2681 25.0034 16.0552 25.0034 15.8333C25.0034 15.6114 24.9153 15.3986 24.7583 15.2417C24.6014 15.0847 24.3886 14.9966 24.1667 14.9966C23.9448 14.9966 23.7319 15.0847 23.575 15.2417L20 18.825L16.425 15.2417C16.2681 15.0847 16.0553 14.9966 15.8333 14.9966C15.6114 14.9966 15.3986 15.0847 15.2417 15.2417C15.0848 15.3986 14.9966 15.6114 14.9966 15.8333C14.9966 16.0552 15.0848 16.2681 15.2417 16.425L18.825 20L15.2417 23.575C15.1636 23.6525 15.1016 23.7446 15.0593 23.8462C15.017 23.9477 14.9952 24.0566 14.9952 24.1667C14.9952 24.2767 15.017 24.3856 15.0593 24.4871C15.1016 24.5887 15.1636 24.6809 15.2417 24.7583C15.3191 24.8364 15.4113 24.8984 15.5129 24.9407C15.6144 24.983 15.7233 25.0048 15.8333 25.0048C15.9434 25.0048 16.0523 24.983 16.1538 24.9407C16.2554 24.8984 16.3475 24.8364 16.425 24.7583L20 21.175L23.575 24.7583C23.6525 24.8364 23.7446 24.8984 23.8462 24.9407C23.9477 24.983 24.0567 25.0048 24.1667 25.0048C24.2767 25.0048 24.3856 24.983 24.4872 24.9407C24.5887 24.8984 24.6809 24.8364 24.7583 24.7583C24.8365 24.6809 24.8984 24.5887 24.9408 24.4871C24.9831 24.3856 25.0048 24.2767 25.0048 24.1667C25.0048 24.0566 24.9831 23.9477 24.9408 23.8462C24.8984 23.7446 24.8365 23.6525 24.7583 23.575L21.175 20Z" fill="#4D5E6F"></path></svg>